<?xml version="1.0" encoding="UTF-8" standalone="no"?>
<!-- Created with Inkscape (http://www.inkscape.org/) -->

<svg
   version="1.1"
   id="svg1"
   width="253.52612"
   height="390.53125"
   viewBox="0 0 253.52612 390.53125"
   xmlns="http://www.w3.org/2000/svg"
   xmlns:svg="http://www.w3.org/2000/svg">
  <defs
     id="defs1" />
  <g
     id="g1"
     transform="translate(-65.311769,-9.3164063)">
    <g
       id="g74">
      <path
         style="fill:#04a0e0;fill-opacity:1;fill-rule:evenodd;stroke-width:1.62457;stroke-linejoin:round"
         id="path49"
         d="M 105.92593,90.544716 A 40.614155,40.614155 0 0 1 70.753037,70.237639 40.614155,40.614155 0 0 1 70.753036,29.623484 40.614155,40.614155 0 0 1 105.92593,9.3164063 V 49.930561 Z" />
      <path
         style="fill:#d4ff2a;fill-opacity:1;fill-rule:evenodd;stroke:none;stroke-width:2;stroke-linejoin:round;stroke-opacity:1"
         d="m 146.54008,295.33726 c 0,0 5.7128,-26.41732 14.16511,-36.26533 14.15059,-16.48722 28.79656,-23.76933 62.8125,-22.99174 14.32676,0.3275 14.09132,-2.04437 14.09132,-2.04437 V 152.4092 c 0,0 -54.03593,-9.00708 -91.06893,36.50236 z"
         id="path53" />
      <path
         style="fill:#02dcd9;fill-opacity:1;fill-rule:evenodd;stroke-width:1.62457;stroke-linejoin:round"
         id="path50"
         d="m -105.92593,90.544716 a 40.614155,40.614155 0 0 1 -35.17289,-20.307077 40.614155,40.614155 0 0 1 0,-40.614155 40.614155,40.614155 0 0 1 35.17289,-20.3070777 V 49.930561 Z"
         transform="scale(-1,1)" />
      <path
         id="path51"
         style="fill:#04a0e0;fill-rule:evenodd;stroke-width:2;stroke-linejoin:round"
         d="M 146.54102,102.00195 65.3125,173.73633 v 220.46875 l 81.22852,-71.73438 v -9.28125 c 0,-9.85943 1.65225,-25.69975 4.81054,-35.03515 0.82734,-2.4455 1.74779,-4.94754 2.75196,-7.35547 2.86049,-6.8593 10.4008,-16.52039 16.16406,-21.24219 11.92883,-9.77321 26.6803,-14.08393 53.25,-13.47656 14.32676,0.3275 14.09179,0.21875 14.0918,0.21875 v 163.54883 l 81.22851,-71.73438 V 197.91016 C 260.87872,131.05855 185.72317,140.7616 146.54101,188.91212 Z" />
      <g
         id="path52">
        <path
           style="display:inline;fill:#02dcd9;fill-rule:evenodd"
           d="M 318.83789,9.3164062 237.60938,81.050781 v 62.710939 c 18.79481,0.75454 50.75307,6.92227 75.31445,37.10547 l 5.91406,6.82031 z"
           id="path58" />
      </g>
      <path
         id="path56"
         style="fill:#0655a7;fill-opacity:1;fill-rule:evenodd;stroke-width:2;stroke-linejoin:round"
         d="m 65.3125,253.54433 c 17.278934,-27.38797 44.35504,-51.29952 81.22831,-71.73465 V 322.47073 L 65.3125,394.20538 Z" />
      <path
         d="m 181.73242,160.66211 c -7.86565,16.04814 -22.0099,35.38645 -21.02734,99.22851 -1.41637,1.72757 -2.68806,3.67825 -3.89258,5.73047 3.59794,-5.93524 9.03922,-12.44656 13.45508,-16.06445 11.92883,-9.77321 26.6803,-14.08393 53.25,-13.47656 14.32676,0.3275 14.09179,0.21875 14.09179,0.21875 V 336.82844 C 259.32221,261.91788 312.21444,190.57998 308.82958,187.27668 267.37062,146.81657 219.08106,142.1933 181.73242,160.66211 Z"
         style="fill:#0655a7;fill-opacity:1;fill-rule:evenodd;stroke-width:2;stroke-linejoin:round"
         id="path68" />
      <path
         d="m 146.54102,188.91211 v 124.27734 c 0,-9.85943 1.65225,-25.69975 4.81054,-35.03515 0.82734,-2.4455 1.74779,-4.94754 2.75196,-7.35547 0.74938,-1.79699 1.84152,-3.78769 3.11718,-5.83008 1.08683,-1.80697 2.22274,-3.53929 3.48438,-5.07813 -0.98256,-63.84206 13.16169,-83.18037 21.02734,-99.22851 -13.41657,6.63446 -25.42284,16.24552 -35.1914,28.25 z"
         style="fill:#052570;fill-opacity:1;fill-rule:evenodd;stroke-width:2;stroke-linejoin:round"
         id="path72" />
      <g
         id="g73">
        <path
           style="display:inline;fill:#00acb4;fill-opacity:1;fill-rule:evenodd"
           d="m 251.71889,68.59042 -14.10951,12.460361 v 62.710939 c 34.87899,1.50926 58.03287,17.38392 72.42048,33.69634 -9.29785,-65.74258 -56.47884,-58.86615 -58.31097,-108.86764 z"
           id="path73" />
      </g>
    </g>
  </g>
</svg>
