<svg xmlns="http://www.w3.org/2000/svg" width="192" height="192" fill="#000000" viewBox="0 0 256 256"><rect width="256" height="256" fill="none"></rect><path d="M128,24a104,104,0,1,0,104,104A104.11,104.11,0,0,0,128,24Zm0,192a88,88,0,1,1,88-88A88.1,88.1,0,0,1,128,216Z"></path><path d="M128,72a32,32,0,1,0,32,32A32.09,32.09,0,0,0,128,72Zm0,48a16,16,0,1,1,16-16A16,16,0,0,1,128,120Z"></path><path d="M128,152a88.23,88.23,0,0,0-72.42,39.62,88,88,0,0,0,144.84,0A88.23,88.23,0,0,0,128,152Zm0,32.38a72.43,72.43,0,0,1,55.41,24.24,72,72,0,0,1-110.82,0A72.43,72.43,0,0,1,128,184.38Z"></path></svg>